<svg id="Group_2581" data-name="Group 2581" xmlns="http://www.w3.org/2000/svg" xmlns:xlink="http://www.w3.org/1999/xlink" width="130" height="130" viewBox="0 0 130 130">
  <defs>
    <linearGradient id="linear-gradient" x1="0.074" y1="-0.408" x2="0.775" y2="1.771" gradientUnits="objectBoundingBox">
      <stop offset="0" stop-color="#0c6291"/>
      <stop offset="1" stop-color="#a30000"/>
    </linearGradient>
  </defs>
  <circle id="Ellipse_3" data-name="Ellipse 3" cx="65" cy="65" r="65" fill="url(#linear-gradient)"/>
  <g id="edit-form-svgrepo-com" transform="translate(44.38 45)">
    <path id="Path_43" data-name="Path 43" d="M30.962,13.562H38a.953.953,0,0,0,.945-.945h0a1.142,1.142,0,0,0-.258-.687L29.932,3.258A1.142,1.142,0,0,0,29.245,3h0a.953.953,0,0,0-.945.945V10.9A2.675,2.675,0,0,0,30.962,13.562Z" transform="translate(-5.716 -3)" fill="none" stroke="#fbfef9" stroke-width="2"/>
    <path id="Path_44" data-name="Path 44" d="M47.374,25.509l-.773-.773a1.347,1.347,0,0,0-1.889,0L34.494,34.955c-.086.086,0,.172,0,.258v2.147c0,.172,0,.343.172.343H36.9c.086,0,.172-.086.258-.086L47.374,27.484A1.3,1.3,0,0,0,47.374,25.509Z" transform="translate(-6.586 -6.017)" fill="none" stroke="#fbfef9" stroke-width="2"/>
    <path id="Path_45" data-name="Path 45" d="M34.545,38.55h-6.1a2.492,2.492,0,0,1-2.49-2.49V31.423a2.085,2.085,0,0,1,.773-1.8l8.158-8.158a1.379,1.379,0,0,0,.429-.945V18.8a1.321,1.321,0,0,0-1.288-1.288H24.584a3.939,3.939,0,0,1-3.95-3.95V4.288A1.34,1.34,0,0,0,19.26,3H5.95A4,4,0,0,0,2,6.95v31.6A4,4,0,0,0,5.95,42.5H31.2a4.053,4.053,0,0,0,3.95-3.177A.684.684,0,0,0,34.545,38.55ZM7.324,14.85a1.321,1.321,0,0,1,1.288-1.288h5.324a1.265,1.265,0,0,1,1.288,1.288v1.288a1.321,1.321,0,0,1-1.288,1.288H8.612a1.265,1.265,0,0,1-1.288-1.288Zm13.31,17.088a1.321,1.321,0,0,1-1.288,1.288H8.612a1.265,1.265,0,0,1-1.288-1.288V30.65a1.321,1.321,0,0,1,1.288-1.288H19.26a1.265,1.265,0,0,1,1.288,1.288v1.288Zm2.662-7.9a1.321,1.321,0,0,1-1.288,1.288H8.612a1.265,1.265,0,0,1-1.288-1.288V22.75a1.321,1.321,0,0,1,1.288-1.288h13.31A1.265,1.265,0,0,1,23.21,22.75v1.288Z" transform="translate(-2 -3)" fill="none" stroke="#fbfef9" stroke-width="2"/>
  </g>
</svg>
