<svg id="Group_2586" data-name="Group 2586" xmlns="http://www.w3.org/2000/svg" xmlns:xlink="http://www.w3.org/1999/xlink" width="130" height="130" viewBox="0 0 130 130">
  <defs>
    <linearGradient id="linear-gradient" x1="0.074" y1="-0.408" x2="0.775" y2="1.771" gradientUnits="objectBoundingBox">
      <stop offset="0" stop-color="#0c6291"/>
      <stop offset="1" stop-color="#a30000"/>
    </linearGradient>
  </defs>
  <circle id="Ellipse_1" data-name="Ellipse 1" cx="65" cy="65" r="65" fill="url(#linear-gradient)"/>
  <g id="icon" transform="translate(42.533 39.546)">
    <g id="Group_41" data-name="Group 41">
      <path id="Path_41" data-name="Path 41" d="M47.38,39.266,39.9,31.626a3.848,3.848,0,0,0-5.5.106L30.622,35.58c-.238-.135-.485-.274-.744-.423a37.55,37.55,0,0,1-9.07-6.7,38.5,38.5,0,0,1-6.573-9.274c-.14-.258-.274-.506-.406-.742l2.531-2.58L17.6,14.595a4.037,4.037,0,0,0,.1-5.616L10.219,1.338a3.843,3.843,0,0,0-5.5.106L2.607,3.609l.058.059A12.5,12.5,0,0,0,.927,6.8,13.19,13.19,0,0,0,.153,9.97C-.835,18.333,2.909,25.976,13.07,36.347,27.116,50.682,38.435,49.6,38.923,49.546a12.417,12.417,0,0,0,3.119-.8A12.1,12.1,0,0,0,45.1,46.98l.046.041,2.137-2.136A4.045,4.045,0,0,0,47.38,39.266Zm-1.762,3.921-.942.96-.375.368a9.394,9.394,0,0,1-3.106,2,10.256,10.256,0,0,1-2.533.65c-.107.01-10.754.938-23.93-12.51-11.2-11.434-13-18.023-12.247-24.4a10.742,10.742,0,0,1,.634-2.586A9.761,9.761,0,0,1,5.076,4.482l1.3-1.342a1.526,1.526,0,0,1,2.18-.106l7.485,7.639a1.609,1.609,0,0,1-.1,2.229l-5.055,5.154.467.8c.259.447.533.947.826,1.491a40.476,40.476,0,0,0,6.967,9.809,39.674,39.674,0,0,0,9.592,7.1c.54.3,1.033.586,1.476.855l.787.476,5.051-5.157a1.536,1.536,0,0,1,2.186-.1l7.481,7.637A1.606,1.606,0,0,1,45.618,43.187Z" transform="translate(0 -0.229)" fill="#fff"/>
    </g>
  </g>
</svg>
