<svg id="Group_2583" data-name="Group 2583" xmlns="http://www.w3.org/2000/svg" xmlns:xlink="http://www.w3.org/1999/xlink" width="130" height="130" viewBox="0 0 130 130">
  <defs>
    <linearGradient id="linear-gradient" x1="0.074" y1="-0.408" x2="0.775" y2="1.771" gradientUnits="objectBoundingBox">
      <stop offset="0" stop-color="#0c6291"/>
      <stop offset="1" stop-color="#a30000"/>
    </linearGradient>
  </defs>
  <circle id="Ellipse_2" data-name="Ellipse 2" cx="65" cy="65" r="65" fill="url(#linear-gradient)"/>
  <g id="Group_2582" data-name="Group 2582">
    <g id="icon" transform="translate(34.831 44.533)">
      <g id="Group_43" data-name="Group 43" transform="translate(0 0)">
        <g id="Group_42" data-name="Group 42">
          <path id="Path_42" data-name="Path 42" d="M48.994,66.714a12.808,12.808,0,0,0-13.3-6.473A13.1,13.1,0,0,0,10.772,65.9c0,.3.012.605.039.924A13.89,13.89,0,0,0,13.9,94.258H27.452V78.844l-1.942,1.942a2.761,2.761,0,0,1-3.815,0,2.69,2.69,0,0,1,0-3.812l6.548-6.551a2.712,2.712,0,0,1,1.906-.788l.262.009a2.679,2.679,0,0,1,1.679.776l6.552,6.555a2.694,2.694,0,0,1,0,3.814,2.763,2.763,0,0,1-3.814,0L32.847,78.8V94.259H46.441a13.89,13.89,0,0,0,2.552-27.545Z" transform="translate(0 -52.792)" fill="none" stroke="#fff" stroke-width="2"/>
        </g>
      </g>
    </g>
  </g>
</svg>
